# xmcd
#
# Track frame offsets:
#	150
#	19805
#	34028
#	54217
#	71320
#	91848
#	106310
#	121423
#	135907
#	155281
#	173251
#	192330
#
# Disc length: 2828 seconds
#
# Revision: 1
# Processed by: cddbd v1.5.2PL0 Copyright (c) Steve Scherf et al.
# Submitted via: audiograbber 1.83.01
#
DISCID=850b0a0c
DTITLE=Алексей Созонов - Картинки Жизни
DYEAR=2006
DGENRE=
TTITLE0=Вроде Весна
TTITLE1=Две дороги
TTITLE2=Жизнь - это удивительная штука
TTITLE3=Детство
TTITLE4=Слезы любви
TTITLE5=Закружила
TTITLE6=Замок изо льда
TTITLE7=Посвящение бывшему другу
TTITLE8=Ты найди
TTITLE9=Про остров Зелененький
TTITLE10=Я брожу по свету
TTITLE11=Друзьям
EXTD=
EXTT0=
EXTT1=
EXTT2=
EXTT3=
EXTT4=
EXTT5=
EXTT6=
EXTT7=
EXTT8=
EXTT9=
EXTT10=
EXTT11=
PLAYORDER=
